<svg width="1728" height="637" viewBox="0 0 1728 637" fill="none" xmlns="http://www.w3.org/2000/svg">
<g clip-path="url(#clip0_109_2655)">
<g filter="url(#filter0_f_109_2655)">
<circle cx="287" cy="287" r="287" transform="matrix(-0.999994 -0.00358488 -0.00358488 0.999994 1853.05 551.055)" fill="#3771FE"/>
</g>
<g filter="url(#filter1_f_109_2655)">
<circle cx="260" cy="260" r="260" transform="matrix(-0.999994 -0.00358488 -0.00358488 0.999994 377.859 470.617)" fill="#B29EFA"/>
</g>
<g filter="url(#filter2_f_109_2655)">
<circle cx="375" cy="375" r="375" transform="matrix(-0.999994 -0.00358488 -0.00358488 0.999994 1609.02 408.898)" fill="#B29EFA"/>
</g>
<g filter="url(#filter3_f_109_2655)">
<circle cx="375" cy="375" r="375" transform="matrix(-0.999994 -0.00358488 -0.00358488 0.999994 1099.69 548.688)" fill="#3771FE"/>
</g>
<path d="M314.11 -1363.74L527.74 -1097.76L-1251.37 331.179L-1465 65.1966L314.11 -1363.74Z" fill="url(#paint0_linear_109_2655)" fill-opacity="0.17" style="mix-blend-mode:overlay"/>
<path d="M1934.51 -532.625L2148.14 -266.643L369.028 1162.3L155.397 896.314L1934.51 -532.625Z" fill="url(#paint1_linear_109_2655)" fill-opacity="0.17" style="mix-blend-mode:overlay"/>
<path d="M429.86 -1304.45L643.49 -1038.47L-1135.62 390.468L-1349.25 124.486L429.86 -1304.45Z" fill="url(#paint2_linear_109_2655)" fill-opacity="0.17" style="mix-blend-mode:overlay"/>
<path d="M2050.25 -473.266L2263.88 -207.283L484.77 1221.66L271.14 955.673L2050.25 -473.266Z" fill="url(#paint3_linear_109_2655)" fill-opacity="0.17" style="mix-blend-mode:overlay"/>
<path d="M545.602 -1245.07L759.232 -979.088L-1019.88 449.851L-1233.51 183.869L545.602 -1245.07Z" fill="url(#paint4_linear_109_2655)" fill-opacity="0.17" style="mix-blend-mode:overlay"/>
<path d="M2165.99 -413.906L2379.62 -147.924L600.513 1281.02L386.882 1015.03L2165.99 -413.906Z" fill="url(#paint5_linear_109_2655)" fill-opacity="0.17" style="mix-blend-mode:overlay"/>
<path d="M661.344 -1185.7L874.975 -919.721L-904.136 509.218L-1117.77 243.236L661.344 -1185.7Z" fill="url(#paint6_linear_109_2655)" fill-opacity="0.17" style="mix-blend-mode:overlay"/>
<path d="M2281.73 -354.516L2495.37 -88.5331L716.255 1340.41L502.624 1074.42L2281.73 -354.516Z" fill="url(#paint7_linear_109_2655)" fill-opacity="0.17" style="mix-blend-mode:overlay"/>
<path d="M777.086 -1126.34L990.717 -860.353L-788.394 568.585L-1002.02 302.603L777.086 -1126.34Z" fill="url(#paint8_linear_109_2655)" fill-opacity="0.17" style="mix-blend-mode:overlay"/>
<path d="M2397.48 -295.148L2611.11 -29.1659L831.997 1399.77L618.366 1133.79L2397.48 -295.148Z" fill="url(#paint9_linear_109_2655)" fill-opacity="0.17" style="mix-blend-mode:overlay"/>
<path d="M892.828 -1066.97L1106.46 -800.986L-672.652 627.953L-886.282 361.97L892.828 -1066.97Z" fill="url(#paint10_linear_109_2655)" fill-opacity="0.17" style="mix-blend-mode:overlay"/>
<path d="M2513.22 -235.789L2726.85 30.1936L947.739 1459.13L734.108 1193.15L2513.22 -235.789Z" fill="url(#paint11_linear_109_2655)" fill-opacity="0.17" style="mix-blend-mode:overlay"/>
<path d="M1008.57 -1007.6L1222.2 -741.619L-556.909 687.32L-770.54 421.337L1008.57 -1007.6Z" fill="url(#paint12_linear_109_2655)" fill-opacity="0.17" style="mix-blend-mode:overlay"/>
<path d="M2628.96 -176.406L2842.59 89.5764L1063.48 1518.52L849.851 1252.53L2628.96 -176.406Z" fill="url(#paint13_linear_109_2655)" fill-opacity="0.17" style="mix-blend-mode:overlay"/>
<path d="M1124.31 -948.234L1337.94 -682.252L-441.167 746.687L-654.798 480.704L1124.31 -948.234Z" fill="url(#paint14_linear_109_2655)" fill-opacity="0.17" style="mix-blend-mode:overlay"/>
<path d="M2744.7 -117.047L2958.33 148.936L1179.22 1577.87L965.593 1311.89L2744.7 -117.047Z" fill="url(#paint15_linear_109_2655)" fill-opacity="0.17" style="mix-blend-mode:overlay"/>
<path d="M1240.05 -888.852L1453.69 -622.869L-325.425 806.07L-539.056 540.087L1240.05 -888.852Z" fill="url(#paint16_linear_109_2655)" fill-opacity="0.17" style="mix-blend-mode:overlay"/>
<path d="M2860.45 -57.6795L3074.08 208.303L1294.97 1637.24L1081.34 1371.26L2860.45 -57.6795Z" fill="url(#paint17_linear_109_2655)" fill-opacity="0.17" style="mix-blend-mode:overlay"/>
<path d="M1355.8 -829.477L1569.43 -563.494L-209.683 865.445L-423.313 599.462L1355.8 -829.477Z" fill="url(#paint18_linear_109_2655)" fill-opacity="0.17" style="mix-blend-mode:overlay"/>
<path d="M2976.19 1.70312L3189.82 267.686L1410.71 1696.62L1197.08 1430.64L2976.19 1.70312Z" fill="url(#paint19_linear_109_2655)" fill-opacity="0.17" style="mix-blend-mode:overlay"/>
<path d="M1471.54 -770.117L1685.17 -504.135L-93.9406 924.804L-307.571 658.822L1471.54 -770.117Z" fill="url(#paint20_linear_109_2655)" fill-opacity="0.17" style="mix-blend-mode:overlay"/>
<path d="M1587.28 -710.742L1800.91 -444.76L21.8015 984.179L-191.829 718.197L1587.28 -710.742Z" fill="url(#paint21_linear_109_2655)" fill-opacity="0.17" style="mix-blend-mode:overlay"/>
<path d="M1703.02 -651.375L1916.65 -385.393L137.544 1043.55L-76.087 777.564L1703.02 -651.375Z" fill="url(#paint22_linear_109_2655)" fill-opacity="0.17" style="mix-blend-mode:overlay"/>
<path d="M1818.77 -592.008L2032.4 -326.025L253.286 1102.91L39.6552 836.931L1818.77 -592.008Z" fill="url(#paint23_linear_109_2655)" fill-opacity="0.17" style="mix-blend-mode:overlay"/>
</g>
<defs>
<filter id="filter0_f_109_2655" x="954.028" y="226.024" width="1222" height="1222" filterUnits="userSpaceOnUse" color-interpolation-filters="sRGB">
<feFlood flood-opacity="0" result="BackgroundImageFix"/>
<feBlend mode="normal" in="SourceGraphic" in2="BackgroundImageFix" result="shape"/>
<feGaussianBlur stdDeviation="162" result="effect1_foregroundBlur_109_2655"/>
</filter>
<filter id="filter1_f_109_2655" x="-467.071" y="145.683" width="1168" height="1168" filterUnits="userSpaceOnUse" color-interpolation-filters="sRGB">
<feFlood flood-opacity="0" result="BackgroundImageFix"/>
<feBlend mode="normal" in="SourceGraphic" in2="BackgroundImageFix" result="shape"/>
<feGaussianBlur stdDeviation="162" result="effect1_foregroundBlur_109_2655"/>
</filter>
<filter id="filter2_f_109_2655" x="533.674" y="83.5516" width="1398" height="1398" filterUnits="userSpaceOnUse" color-interpolation-filters="sRGB">
<feFlood flood-opacity="0" result="BackgroundImageFix"/>
<feBlend mode="normal" in="SourceGraphic" in2="BackgroundImageFix" result="shape"/>
<feGaussianBlur stdDeviation="162" result="effect1_foregroundBlur_109_2655"/>
</filter>
<filter id="filter3_f_109_2655" x="24.3457" y="223.341" width="1398" height="1398" filterUnits="userSpaceOnUse" color-interpolation-filters="sRGB">
<feFlood flood-opacity="0" result="BackgroundImageFix"/>
<feBlend mode="normal" in="SourceGraphic" in2="BackgroundImageFix" result="shape"/>
<feGaussianBlur stdDeviation="162" result="effect1_foregroundBlur_109_2655"/>
</filter>
<linearGradient id="paint0_linear_109_2655" x1="-66.7303" y1="-620.295" x2="-280.361" y2="-886.278" gradientUnits="userSpaceOnUse">
<stop stop-color="white"/>
<stop offset="0.189"/>
<stop offset="1" stop-color="white" stop-opacity="0"/>
</linearGradient>
<linearGradient id="paint1_linear_109_2655" x1="1553.67" y1="210.822" x2="1340.04" y2="-55.1604" gradientUnits="userSpaceOnUse">
<stop stop-color="white"/>
<stop offset="0.189"/>
<stop offset="1" stop-color="white" stop-opacity="0"/>
</linearGradient>
<linearGradient id="paint2_linear_109_2655" x1="49.0197" y1="-561.006" x2="-164.611" y2="-826.989" gradientUnits="userSpaceOnUse">
<stop stop-color="white"/>
<stop offset="0.189"/>
<stop offset="1" stop-color="white" stop-opacity="0"/>
</linearGradient>
<linearGradient id="paint3_linear_109_2655" x1="1669.41" y1="270.181" x2="1455.78" y2="4.19897" gradientUnits="userSpaceOnUse">
<stop stop-color="white"/>
<stop offset="0.189"/>
<stop offset="1" stop-color="white" stop-opacity="0"/>
</linearGradient>
<linearGradient id="paint4_linear_109_2655" x1="164.762" y1="-501.623" x2="-48.8689" y2="-767.606" gradientUnits="userSpaceOnUse">
<stop stop-color="white"/>
<stop offset="0.189"/>
<stop offset="1" stop-color="white" stop-opacity="0"/>
</linearGradient>
<linearGradient id="paint5_linear_109_2655" x1="1785.15" y1="329.541" x2="1571.52" y2="63.5583" gradientUnits="userSpaceOnUse">
<stop stop-color="white"/>
<stop offset="0.189"/>
<stop offset="1" stop-color="white" stop-opacity="0"/>
</linearGradient>
<linearGradient id="paint6_linear_109_2655" x1="280.504" y1="-442.256" x2="66.8734" y2="-708.239" gradientUnits="userSpaceOnUse">
<stop stop-color="white"/>
<stop offset="0.189"/>
<stop offset="1" stop-color="white" stop-opacity="0"/>
</linearGradient>
<linearGradient id="paint7_linear_109_2655" x1="1900.89" y1="388.931" x2="1687.26" y2="122.949" gradientUnits="userSpaceOnUse">
<stop stop-color="white"/>
<stop offset="0.189"/>
<stop offset="1" stop-color="white" stop-opacity="0"/>
</linearGradient>
<linearGradient id="paint8_linear_109_2655" x1="396.246" y1="-382.889" x2="182.615" y2="-648.871" gradientUnits="userSpaceOnUse">
<stop stop-color="white"/>
<stop offset="0.189"/>
<stop offset="1" stop-color="white" stop-opacity="0"/>
</linearGradient>
<linearGradient id="paint9_linear_109_2655" x1="2016.64" y1="448.299" x2="1803.01" y2="182.316" gradientUnits="userSpaceOnUse">
<stop stop-color="white"/>
<stop offset="0.189"/>
<stop offset="1" stop-color="white" stop-opacity="0"/>
</linearGradient>
<linearGradient id="paint10_linear_109_2655" x1="511.988" y1="-323.522" x2="298.358" y2="-589.504" gradientUnits="userSpaceOnUse">
<stop stop-color="white"/>
<stop offset="0.189"/>
<stop offset="1" stop-color="white" stop-opacity="0"/>
</linearGradient>
<linearGradient id="paint11_linear_109_2655" x1="2132.38" y1="507.658" x2="1918.75" y2="241.676" gradientUnits="userSpaceOnUse">
<stop stop-color="white"/>
<stop offset="0.189"/>
<stop offset="1" stop-color="white" stop-opacity="0"/>
</linearGradient>
<linearGradient id="paint12_linear_109_2655" x1="627.731" y1="-264.155" x2="414.1" y2="-530.137" gradientUnits="userSpaceOnUse">
<stop stop-color="white"/>
<stop offset="0.189"/>
<stop offset="1" stop-color="white" stop-opacity="0"/>
</linearGradient>
<linearGradient id="paint13_linear_109_2655" x1="2248.12" y1="567.041" x2="2034.49" y2="301.058" gradientUnits="userSpaceOnUse">
<stop stop-color="white"/>
<stop offset="0.189"/>
<stop offset="1" stop-color="white" stop-opacity="0"/>
</linearGradient>
<linearGradient id="paint14_linear_109_2655" x1="743.473" y1="-204.787" x2="529.842" y2="-470.77" gradientUnits="userSpaceOnUse">
<stop stop-color="white"/>
<stop offset="0.189"/>
<stop offset="1" stop-color="white" stop-opacity="0"/>
</linearGradient>
<linearGradient id="paint15_linear_109_2655" x1="2363.86" y1="626.4" x2="2150.23" y2="360.418" gradientUnits="userSpaceOnUse">
<stop stop-color="white"/>
<stop offset="0.189"/>
<stop offset="1" stop-color="white" stop-opacity="0"/>
</linearGradient>
<linearGradient id="paint16_linear_109_2655" x1="859.215" y1="-145.405" x2="645.584" y2="-411.387" gradientUnits="userSpaceOnUse">
<stop stop-color="white"/>
<stop offset="0.189"/>
<stop offset="1" stop-color="white" stop-opacity="0"/>
</linearGradient>
<linearGradient id="paint17_linear_109_2655" x1="2479.61" y1="685.767" x2="2265.97" y2="419.785" gradientUnits="userSpaceOnUse">
<stop stop-color="white"/>
<stop offset="0.189"/>
<stop offset="1" stop-color="white" stop-opacity="0"/>
</linearGradient>
<linearGradient id="paint18_linear_109_2655" x1="974.957" y1="-86.0295" x2="761.326" y2="-352.012" gradientUnits="userSpaceOnUse">
<stop stop-color="white"/>
<stop offset="0.189"/>
<stop offset="1" stop-color="white" stop-opacity="0"/>
</linearGradient>
<linearGradient id="paint19_linear_109_2655" x1="2595.35" y1="745.15" x2="2381.72" y2="479.168" gradientUnits="userSpaceOnUse">
<stop stop-color="white"/>
<stop offset="0.189"/>
<stop offset="1" stop-color="white" stop-opacity="0"/>
</linearGradient>
<linearGradient id="paint20_linear_109_2655" x1="1090.7" y1="-26.6701" x2="877.069" y2="-292.653" gradientUnits="userSpaceOnUse">
<stop stop-color="white"/>
<stop offset="0.189"/>
<stop offset="1" stop-color="white" stop-opacity="0"/>
</linearGradient>
<linearGradient id="paint21_linear_109_2655" x1="1206.44" y1="32.7048" x2="992.811" y2="-233.278" gradientUnits="userSpaceOnUse">
<stop stop-color="white"/>
<stop offset="0.189"/>
<stop offset="1" stop-color="white" stop-opacity="0"/>
</linearGradient>
<linearGradient id="paint22_linear_109_2655" x1="1322.18" y1="92.072" x2="1108.55" y2="-173.91" gradientUnits="userSpaceOnUse">
<stop stop-color="white"/>
<stop offset="0.189"/>
<stop offset="1" stop-color="white" stop-opacity="0"/>
</linearGradient>
<linearGradient id="paint23_linear_109_2655" x1="1437.93" y1="151.439" x2="1224.3" y2="-114.543" gradientUnits="userSpaceOnUse">
<stop stop-color="white"/>
<stop offset="0.189"/>
<stop offset="1" stop-color="white" stop-opacity="0"/>
</linearGradient>
<clipPath id="clip0_109_2655">
<rect width="1728" height="637" fill="white"/>
</clipPath>
</defs>
</svg>
