<svg width="163" height="357" viewBox="0 0 163 357" fill="none" xmlns="http://www.w3.org/2000/svg">
<g clip-path="url(#clip0_109_1996)">
<rect width="163" height="357" fill="white"/>
<rect x="-41" width="250.986" height="341.034" fill="white"/>
<g filter="url(#filter0_f_109_1996)">
<ellipse cx="94.0728" cy="6.70576" rx="127.409" ry="124.854" fill="white"/>
</g>
<g filter="url(#filter1_f_109_1996)">
<ellipse cx="48" cy="132" rx="86" ry="80" fill="#3771FE"/>
</g>
<g filter="url(#filter2_f_109_1996)">
<ellipse cx="170.629" cy="124.352" rx="61.6288" ry="60.3515" fill="#C400FF"/>
</g>
<g filter="url(#filter3_f_109_1996)">
<ellipse cx="94.0673" cy="80.1552" rx="41.1923" ry="40.5537" fill="#36D0FA"/>
</g>
<g filter="url(#filter4_f_109_1996)">
<ellipse cx="108.76" cy="171.151" rx="22.0331" ry="21.7138" fill="white"/>
</g>
<path d="M187.141 -1326.71L400.771 -1060.73L-1378.34 368.21L-1591.97 102.228L187.141 -1326.71Z" fill="url(#paint0_linear_109_1996)" fill-opacity="0.26" style="mix-blend-mode:overlay"/>
<path d="M491.531 -495.602L705.162 -229.619L-1073.95 1199.32L-1287.58 933.337L491.531 -495.602Z" fill="url(#paint1_linear_109_1996)" fill-opacity="0.26" style="mix-blend-mode:overlay"/>
<path d="M208.883 -1267.44L422.514 -1001.46L-1356.6 427.484L-1570.23 161.501L208.883 -1267.44Z" fill="url(#paint2_linear_109_1996)" fill-opacity="0.26" style="mix-blend-mode:overlay"/>
<path d="M513.273 -436.242L726.904 -170.26L-1052.21 1258.68L-1265.84 992.697L513.273 -436.242Z" fill="url(#paint3_linear_109_1996)" fill-opacity="0.26" style="mix-blend-mode:overlay"/>
<path d="M230.625 -1208.06L444.256 -942.08L-1334.85 486.859L-1548.49 220.876L230.625 -1208.06Z" fill="url(#paint4_linear_109_1996)" fill-opacity="0.26" style="mix-blend-mode:overlay"/>
<path d="M535.016 -376.883L748.646 -110.9L-1030.46 1318.04L-1244.09 1052.06L535.016 -376.883Z" fill="url(#paint5_linear_109_1996)" fill-opacity="0.26" style="mix-blend-mode:overlay"/>
<path d="M252.367 -1148.7L465.998 -882.713L-1313.11 546.226L-1526.74 280.243L252.367 -1148.7Z" fill="url(#paint6_linear_109_1996)" fill-opacity="0.26" style="mix-blend-mode:overlay"/>
<path d="M556.758 -317.492L770.388 -51.5098L-1008.72 1377.43L-1222.35 1111.45L556.758 -317.492Z" fill="url(#paint7_linear_109_1996)" fill-opacity="0.26" style="mix-blend-mode:overlay"/>
<path d="M274.109 -1089.33L487.74 -823.346L-1291.37 605.593L-1505 339.611L274.109 -1089.33Z" fill="url(#paint8_linear_109_1996)" fill-opacity="0.26" style="mix-blend-mode:overlay"/>
<path d="M578.5 -258.125L792.131 7.85743L-986.98 1436.8L-1200.61 1170.81L578.5 -258.125Z" fill="url(#paint9_linear_109_1996)" fill-opacity="0.26" style="mix-blend-mode:overlay"/>
<path d="M295.852 -1029.96L509.482 -763.979L-1269.63 664.96L-1483.26 398.978L295.852 -1029.96Z" fill="url(#paint10_linear_109_1996)" fill-opacity="0.26" style="mix-blend-mode:overlay"/>
<path d="M600.242 -198.766L813.873 67.2168L-965.238 1496.16L-1178.87 1230.17L600.242 -198.766Z" fill="url(#paint11_linear_109_1996)" fill-opacity="0.26" style="mix-blend-mode:overlay"/>
<path d="M317.594 -970.594L531.224 -704.611L-1247.89 724.327L-1461.52 458.345L317.594 -970.594Z" fill="url(#paint12_linear_109_1996)" fill-opacity="0.26" style="mix-blend-mode:overlay"/>
<path d="M621.984 -139.383L835.615 126.6L-943.495 1555.54L-1157.13 1289.56L621.984 -139.383Z" fill="url(#paint13_linear_109_1996)" fill-opacity="0.26" style="mix-blend-mode:overlay"/>
<path d="M339.336 -911.227L552.967 -645.244L-1226.14 783.695L-1439.77 517.712L339.336 -911.227Z" fill="url(#paint14_linear_109_1996)" fill-opacity="0.26" style="mix-blend-mode:overlay"/>
<path d="M643.727 -80.0312L857.357 185.951L-921.753 1614.89L-1135.38 1348.91L643.727 -80.0312Z" fill="url(#paint15_linear_109_1996)" fill-opacity="0.26" style="mix-blend-mode:overlay"/>
<path d="M361.078 -851.836L574.709 -585.854L-1204.4 843.085L-1418.03 577.103L361.078 -851.836Z" fill="url(#paint16_linear_109_1996)" fill-opacity="0.26" style="mix-blend-mode:overlay"/>
<path d="M665.469 -20.6797L879.099 245.303L-900.011 1674.24L-1113.64 1408.26L665.469 -20.6797Z" fill="url(#paint17_linear_109_1996)" fill-opacity="0.26" style="mix-blend-mode:overlay"/>
<path d="M382.82 -792.461L596.451 -526.479L-1182.66 902.46L-1396.29 636.478L382.82 -792.461Z" fill="url(#paint18_linear_109_1996)" fill-opacity="0.26" style="mix-blend-mode:overlay"/>
<path d="M687.211 38.7032L900.842 304.686L-878.269 1733.62L-1091.9 1467.64L687.211 38.7032Z" fill="url(#paint19_linear_109_1996)" fill-opacity="0.26" style="mix-blend-mode:overlay"/>
<path d="M404.562 -733.094L618.193 -467.111L-1160.92 961.827L-1374.55 695.845L404.562 -733.094Z" fill="url(#paint20_linear_109_1996)" fill-opacity="0.26" style="mix-blend-mode:overlay"/>
<path d="M426.305 -673.719L639.935 -407.736L-1139.18 1021.2L-1352.81 755.22L426.305 -673.719Z" fill="url(#paint21_linear_109_1996)" fill-opacity="0.26" style="mix-blend-mode:overlay"/>
<path d="M448.047 -614.352L661.678 -348.369L-1117.43 1080.57L-1331.06 814.587L448.047 -614.352Z" fill="url(#paint22_linear_109_1996)" fill-opacity="0.26" style="mix-blend-mode:overlay"/>
<path d="M469.789 -554.992L683.42 -289.01L-1095.69 1139.93L-1309.32 873.947L469.789 -554.992Z" fill="url(#paint23_linear_109_1996)" fill-opacity="0.26" style="mix-blend-mode:overlay"/>
<rect opacity="0.97" x="-79" y="-8" width="307" height="372" fill="url(#paint24_linear_109_1996)"/>
</g>
<defs>
<filter id="filter0_f_109_1996" x="-1823.38" y="-1908.19" width="3834.91" height="3829.8" filterUnits="userSpaceOnUse" color-interpolation-filters="sRGB">
<feFlood flood-opacity="0" result="BackgroundImageFix"/>
<feBlend mode="normal" in="SourceGraphic" in2="BackgroundImageFix" result="shape"/>
<feGaussianBlur stdDeviation="895.023" result="effect1_foregroundBlur_109_1996"/>
</filter>
<filter id="filter1_f_109_1996" x="-188.3" y="-98.3" width="472.6" height="460.6" filterUnits="userSpaceOnUse" color-interpolation-filters="sRGB">
<feFlood flood-opacity="0" result="BackgroundImageFix"/>
<feBlend mode="normal" in="SourceGraphic" in2="BackgroundImageFix" result="shape"/>
<feGaussianBlur stdDeviation="75.15" result="effect1_foregroundBlur_109_1996"/>
</filter>
<filter id="filter2_f_109_1996" x="-38.1427" y="-83.1427" width="417.543" height="414.989" filterUnits="userSpaceOnUse" color-interpolation-filters="sRGB">
<feFlood flood-opacity="0" result="BackgroundImageFix"/>
<feBlend mode="normal" in="SourceGraphic" in2="BackgroundImageFix" result="shape"/>
<feGaussianBlur stdDeviation="73.5714" result="effect1_foregroundBlur_109_1996"/>
</filter>
<filter id="filter3_f_109_1996" x="-94.2677" y="-107.541" width="376.67" height="375.393" filterUnits="userSpaceOnUse" color-interpolation-filters="sRGB">
<feFlood flood-opacity="0" result="BackgroundImageFix"/>
<feBlend mode="normal" in="SourceGraphic" in2="BackgroundImageFix" result="shape"/>
<feGaussianBlur stdDeviation="73.5714" result="effect1_foregroundBlur_109_1996"/>
</filter>
<filter id="filter4_f_109_1996" x="-60.4162" y="2.29475" width="338.352" height="337.713" filterUnits="userSpaceOnUse" color-interpolation-filters="sRGB">
<feFlood flood-opacity="0" result="BackgroundImageFix"/>
<feBlend mode="normal" in="SourceGraphic" in2="BackgroundImageFix" result="shape"/>
<feGaussianBlur stdDeviation="73.5714" result="effect1_foregroundBlur_109_1996"/>
</filter>
<linearGradient id="paint0_linear_109_1996" x1="-193.699" y1="-583.264" x2="-407.33" y2="-849.246" gradientUnits="userSpaceOnUse">
<stop stop-color="white"/>
<stop offset="0.189"/>
<stop offset="1" stop-color="white" stop-opacity="0"/>
</linearGradient>
<linearGradient id="paint1_linear_109_1996" x1="110.691" y1="247.845" x2="-102.939" y2="-18.137" gradientUnits="userSpaceOnUse">
<stop stop-color="white"/>
<stop offset="0.189"/>
<stop offset="1" stop-color="white" stop-opacity="0"/>
</linearGradient>
<linearGradient id="paint2_linear_109_1996" x1="-171.957" y1="-523.99" x2="-385.588" y2="-789.973" gradientUnits="userSpaceOnUse">
<stop stop-color="white"/>
<stop offset="0.189"/>
<stop offset="1" stop-color="white" stop-opacity="0"/>
</linearGradient>
<linearGradient id="paint3_linear_109_1996" x1="132.433" y1="307.205" x2="-81.1972" y2="41.2223" gradientUnits="userSpaceOnUse">
<stop stop-color="white"/>
<stop offset="0.189"/>
<stop offset="1" stop-color="white" stop-opacity="0"/>
</linearGradient>
<linearGradient id="paint4_linear_109_1996" x1="-150.215" y1="-464.615" x2="-363.846" y2="-730.598" gradientUnits="userSpaceOnUse">
<stop stop-color="white"/>
<stop offset="0.189"/>
<stop offset="1" stop-color="white" stop-opacity="0"/>
</linearGradient>
<linearGradient id="paint5_linear_109_1996" x1="154.176" y1="366.564" x2="-59.455" y2="100.582" gradientUnits="userSpaceOnUse">
<stop stop-color="white"/>
<stop offset="0.189"/>
<stop offset="1" stop-color="white" stop-opacity="0"/>
</linearGradient>
<linearGradient id="paint6_linear_109_1996" x1="-128.473" y1="-405.248" x2="-342.103" y2="-671.231" gradientUnits="userSpaceOnUse">
<stop stop-color="white"/>
<stop offset="0.189"/>
<stop offset="1" stop-color="white" stop-opacity="0"/>
</linearGradient>
<linearGradient id="paint7_linear_109_1996" x1="175.918" y1="425.955" x2="-37.7129" y2="159.972" gradientUnits="userSpaceOnUse">
<stop stop-color="white"/>
<stop offset="0.189"/>
<stop offset="1" stop-color="white" stop-opacity="0"/>
</linearGradient>
<linearGradient id="paint8_linear_109_1996" x1="-106.731" y1="-345.881" x2="-320.361" y2="-611.864" gradientUnits="userSpaceOnUse">
<stop stop-color="white"/>
<stop offset="0.189"/>
<stop offset="1" stop-color="white" stop-opacity="0"/>
</linearGradient>
<linearGradient id="paint9_linear_109_1996" x1="197.66" y1="485.322" x2="-15.9707" y2="219.34" gradientUnits="userSpaceOnUse">
<stop stop-color="white"/>
<stop offset="0.189"/>
<stop offset="1" stop-color="white" stop-opacity="0"/>
</linearGradient>
<linearGradient id="paint10_linear_109_1996" x1="-84.9884" y1="-286.514" x2="-298.619" y2="-552.496" gradientUnits="userSpaceOnUse">
<stop stop-color="white"/>
<stop offset="0.189"/>
<stop offset="1" stop-color="white" stop-opacity="0"/>
</linearGradient>
<linearGradient id="paint11_linear_109_1996" x1="219.402" y1="544.681" x2="5.77155" y2="278.699" gradientUnits="userSpaceOnUse">
<stop stop-color="white"/>
<stop offset="0.189"/>
<stop offset="1" stop-color="white" stop-opacity="0"/>
</linearGradient>
<linearGradient id="paint12_linear_109_1996" x1="-63.2462" y1="-227.147" x2="-276.877" y2="-493.129" gradientUnits="userSpaceOnUse">
<stop stop-color="white"/>
<stop offset="0.189"/>
<stop offset="1" stop-color="white" stop-opacity="0"/>
</linearGradient>
<linearGradient id="paint13_linear_109_1996" x1="241.144" y1="604.064" x2="27.5137" y2="338.082" gradientUnits="userSpaceOnUse">
<stop stop-color="white"/>
<stop offset="0.189"/>
<stop offset="1" stop-color="white" stop-opacity="0"/>
</linearGradient>
<linearGradient id="paint14_linear_109_1996" x1="-41.504" y1="-167.78" x2="-255.135" y2="-433.762" gradientUnits="userSpaceOnUse">
<stop stop-color="white"/>
<stop offset="0.189"/>
<stop offset="1" stop-color="white" stop-opacity="0"/>
</linearGradient>
<linearGradient id="paint15_linear_109_1996" x1="262.887" y1="663.416" x2="49.2559" y2="397.433" gradientUnits="userSpaceOnUse">
<stop stop-color="white"/>
<stop offset="0.189"/>
<stop offset="1" stop-color="white" stop-opacity="0"/>
</linearGradient>
<linearGradient id="paint16_linear_109_1996" x1="-19.7618" y1="-108.389" x2="-233.393" y2="-374.371" gradientUnits="userSpaceOnUse">
<stop stop-color="white"/>
<stop offset="0.189"/>
<stop offset="1" stop-color="white" stop-opacity="0"/>
</linearGradient>
<linearGradient id="paint17_linear_109_1996" x1="284.629" y1="722.767" x2="70.9981" y2="456.785" gradientUnits="userSpaceOnUse">
<stop stop-color="white"/>
<stop offset="0.189"/>
<stop offset="1" stop-color="white" stop-opacity="0"/>
</linearGradient>
<linearGradient id="paint18_linear_109_1996" x1="1.98035" y1="-49.0139" x2="-211.65" y2="-314.996" gradientUnits="userSpaceOnUse">
<stop stop-color="white"/>
<stop offset="0.189"/>
<stop offset="1" stop-color="white" stop-opacity="0"/>
</linearGradient>
<linearGradient id="paint19_linear_109_1996" x1="306.371" y1="782.15" x2="92.7403" y2="516.168" gradientUnits="userSpaceOnUse">
<stop stop-color="white"/>
<stop offset="0.189"/>
<stop offset="1" stop-color="white" stop-opacity="0"/>
</linearGradient>
<linearGradient id="paint20_linear_109_1996" x1="23.7225" y1="10.3533" x2="-189.908" y2="-255.629" gradientUnits="userSpaceOnUse">
<stop stop-color="white"/>
<stop offset="0.189"/>
<stop offset="1" stop-color="white" stop-opacity="0"/>
</linearGradient>
<linearGradient id="paint21_linear_109_1996" x1="45.4648" y1="69.7283" x2="-168.166" y2="-196.254" gradientUnits="userSpaceOnUse">
<stop stop-color="white"/>
<stop offset="0.189"/>
<stop offset="1" stop-color="white" stop-opacity="0"/>
</linearGradient>
<linearGradient id="paint22_linear_109_1996" x1="67.2069" y1="129.095" x2="-146.424" y2="-136.887" gradientUnits="userSpaceOnUse">
<stop stop-color="white"/>
<stop offset="0.189"/>
<stop offset="1" stop-color="white" stop-opacity="0"/>
</linearGradient>
<linearGradient id="paint23_linear_109_1996" x1="88.9491" y1="188.455" x2="-124.682" y2="-77.5277" gradientUnits="userSpaceOnUse">
<stop stop-color="white"/>
<stop offset="0.189"/>
<stop offset="1" stop-color="white" stop-opacity="0"/>
</linearGradient>
<linearGradient id="paint24_linear_109_1996" x1="160.175" y1="-106.28" x2="-184.136" y2="574.252" gradientUnits="userSpaceOnUse">
<stop offset="0.143543" stop-color="white"/>
<stop offset="1" stop-color="white" stop-opacity="0"/>
</linearGradient>
<clipPath id="clip0_109_1996">
<rect width="163" height="357" fill="white"/>
</clipPath>
</defs>
</svg>
