<svg width="1728" height="1117" viewBox="0 0 1728 1117" fill="none" xmlns="http://www.w3.org/2000/svg">
<g clip-path="url(#clip0_109_2716)">
<rect width="1728" height="1117" fill="white"/>
<g opacity="0.6" filter="url(#filter0_f_109_2716)">
<circle cx="287" cy="287" r="287" transform="matrix(1 0 0 -1 943.656 297.047)" fill="#3771FE"/>
</g>
<g opacity="0.6" filter="url(#filter1_f_109_2716)">
<circle cx="375" cy="375" r="375" transform="matrix(1 0 0 -1 594.656 672.047)" fill="#F4F6FD"/>
</g>
<g opacity="0.6" filter="url(#filter2_f_109_2716)">
<circle cx="260" cy="260" r="260" transform="matrix(1 0 0 -1 1449.66 475.047)" fill="#B29EFA"/>
</g>
<g opacity="0.6" filter="url(#filter3_f_109_2716)">
<circle cx="375" cy="375" r="375" transform="matrix(1 0 0 -1 219.656 799.047)" fill="#B29EFA"/>
</g>
<g opacity="0.6" filter="url(#filter4_f_109_2716)">
<circle cx="375" cy="375" r="375" transform="matrix(1 0 0 -1 -8.34375 443.047)" fill="#3771FE"/>
</g>
<path d="M1031.34 -958.938L1244.97 -692.955L-534.136 735.984L-747.767 470.001L1031.34 -958.938Z" fill="url(#paint0_linear_109_2716)" fill-opacity="0.17" style="mix-blend-mode:overlay"/>
<path d="M2651.74 -127.82L2865.37 138.162L1086.26 1567.1L872.632 1301.12L2651.74 -127.82Z" fill="url(#paint1_linear_109_2716)" fill-opacity="0.17" style="mix-blend-mode:overlay"/>
<path d="M1147.09 -899.648L1360.72 -633.666L-418.386 795.273L-632.017 529.29L1147.09 -899.648Z" fill="url(#paint2_linear_109_2716)" fill-opacity="0.17" style="mix-blend-mode:overlay"/>
<path d="M2767.48 -68.4609L2981.12 197.521L1202 1626.46L988.374 1360.48L2767.48 -68.4609Z" fill="url(#paint3_linear_109_2716)" fill-opacity="0.17" style="mix-blend-mode:overlay"/>
<path d="M1262.84 -840.266L1476.47 -574.283L-302.644 854.656L-516.275 588.673L1262.84 -840.266Z" fill="url(#paint4_linear_109_2716)" fill-opacity="0.17" style="mix-blend-mode:overlay"/>
<path d="M2883.23 -9.10156L3096.86 256.881L1317.75 1685.82L1104.12 1419.84L2883.23 -9.10156Z" fill="url(#paint5_linear_109_2716)" fill-opacity="0.17" style="mix-blend-mode:overlay"/>
<path d="M1378.58 -780.898L1592.21 -514.916L-186.902 914.023L-400.532 648.04L1378.58 -780.898Z" fill="url(#paint6_linear_109_2716)" fill-opacity="0.17" style="mix-blend-mode:overlay"/>
<path d="M2998.97 50.2891L3212.6 316.271L1433.49 1745.21L1219.86 1479.23L2998.97 50.2891Z" fill="url(#paint7_linear_109_2716)" fill-opacity="0.17" style="mix-blend-mode:overlay"/>
<path d="M1494.32 -721.531L1707.95 -455.549L-71.1594 973.39L-284.79 707.408L1494.32 -721.531Z" fill="url(#paint8_linear_109_2716)" fill-opacity="0.17" style="mix-blend-mode:overlay"/>
<path d="M3114.71 109.656L3328.34 375.639L1549.23 1804.58L1335.6 1538.6L3114.71 109.656Z" fill="url(#paint9_linear_109_2716)" fill-opacity="0.17" style="mix-blend-mode:overlay"/>
<path d="M1610.06 -662.164L1823.69 -396.182L44.5828 1032.76L-169.048 766.775L1610.06 -662.164Z" fill="url(#paint10_linear_109_2716)" fill-opacity="0.17" style="mix-blend-mode:overlay"/>
<path d="M3230.45 169.016L3444.08 434.998L1664.97 1863.94L1451.34 1597.95L3230.45 169.016Z" fill="url(#paint11_linear_109_2716)" fill-opacity="0.17" style="mix-blend-mode:overlay"/>
<path d="M1725.8 -602.797L1939.44 -336.814L160.325 1092.12L-53.3058 826.142L1725.8 -602.797Z" fill="url(#paint12_linear_109_2716)" fill-opacity="0.17" style="mix-blend-mode:overlay"/>
<path d="M3346.2 228.399L3559.83 494.381L1780.72 1923.32L1567.09 1657.34L3346.2 228.399Z" fill="url(#paint13_linear_109_2716)" fill-opacity="0.17" style="mix-blend-mode:overlay"/>
<path d="M1841.55 -543.43L2055.18 -277.447L276.067 1151.49L62.4363 885.509L1841.55 -543.43Z" fill="url(#paint14_linear_109_2716)" fill-opacity="0.17" style="mix-blend-mode:overlay"/>
<path d="M3461.94 287.758L3675.57 553.74L1896.46 1982.68L1682.83 1716.7L3461.94 287.758Z" fill="url(#paint15_linear_109_2716)" fill-opacity="0.17" style="mix-blend-mode:overlay"/>
<path d="M1957.29 -484.047L2170.92 -218.064L391.809 1210.87L178.179 944.892L1957.29 -484.047Z" fill="url(#paint16_linear_109_2716)" fill-opacity="0.17" style="mix-blend-mode:overlay"/>
<path d="M2073.03 -424.672L2286.66 -158.689L507.551 1270.25L293.921 1004.27L2073.03 -424.672Z" fill="url(#paint17_linear_109_2716)" fill-opacity="0.17" style="mix-blend-mode:overlay"/>
<path d="M2188.77 -365.312L2402.4 -99.3301L623.294 1329.61L409.663 1063.63L2188.77 -365.312Z" fill="url(#paint18_linear_109_2716)" fill-opacity="0.17" style="mix-blend-mode:overlay"/>
<path d="M2304.52 -305.938L2518.15 -39.9551L739.036 1388.98L525.405 1123L2304.52 -305.938Z" fill="url(#paint19_linear_109_2716)" fill-opacity="0.17" style="mix-blend-mode:overlay"/>
<path d="M2420.26 -246.57L2633.89 19.4121L854.778 1448.35L641.147 1182.37L2420.26 -246.57Z" fill="url(#paint20_linear_109_2716)" fill-opacity="0.17" style="mix-blend-mode:overlay"/>
<path d="M2536 -187.203L2749.63 78.7793L970.52 1507.72L756.889 1241.74L2536 -187.203Z" fill="url(#paint21_linear_109_2716)" fill-opacity="0.17" style="mix-blend-mode:overlay"/>
</g>
<defs>
<filter id="filter0_f_109_2716" x="619.656" y="-600.953" width="1222" height="1222" filterUnits="userSpaceOnUse" color-interpolation-filters="sRGB">
<feFlood flood-opacity="0" result="BackgroundImageFix"/>
<feBlend mode="normal" in="SourceGraphic" in2="BackgroundImageFix" result="shape"/>
<feGaussianBlur stdDeviation="162" result="effect1_foregroundBlur_109_2716"/>
</filter>
<filter id="filter1_f_109_2716" x="270.656" y="-401.953" width="1398" height="1398" filterUnits="userSpaceOnUse" color-interpolation-filters="sRGB">
<feFlood flood-opacity="0" result="BackgroundImageFix"/>
<feBlend mode="normal" in="SourceGraphic" in2="BackgroundImageFix" result="shape"/>
<feGaussianBlur stdDeviation="162" result="effect1_foregroundBlur_109_2716"/>
</filter>
<filter id="filter2_f_109_2716" x="1125.66" y="-368.953" width="1168" height="1168" filterUnits="userSpaceOnUse" color-interpolation-filters="sRGB">
<feFlood flood-opacity="0" result="BackgroundImageFix"/>
<feBlend mode="normal" in="SourceGraphic" in2="BackgroundImageFix" result="shape"/>
<feGaussianBlur stdDeviation="162" result="effect1_foregroundBlur_109_2716"/>
</filter>
<filter id="filter3_f_109_2716" x="-104.344" y="-274.953" width="1398" height="1398" filterUnits="userSpaceOnUse" color-interpolation-filters="sRGB">
<feFlood flood-opacity="0" result="BackgroundImageFix"/>
<feBlend mode="normal" in="SourceGraphic" in2="BackgroundImageFix" result="shape"/>
<feGaussianBlur stdDeviation="162" result="effect1_foregroundBlur_109_2716"/>
</filter>
<filter id="filter4_f_109_2716" x="-332.344" y="-630.953" width="1398" height="1398" filterUnits="userSpaceOnUse" color-interpolation-filters="sRGB">
<feFlood flood-opacity="0" result="BackgroundImageFix"/>
<feBlend mode="normal" in="SourceGraphic" in2="BackgroundImageFix" result="shape"/>
<feGaussianBlur stdDeviation="162" result="effect1_foregroundBlur_109_2716"/>
</filter>
<linearGradient id="paint0_linear_109_2716" x1="650.504" y1="-215.49" x2="436.873" y2="-481.473" gradientUnits="userSpaceOnUse">
<stop stop-color="white"/>
<stop offset="0.189"/>
<stop offset="1" stop-color="white" stop-opacity="0"/>
</linearGradient>
<linearGradient id="paint1_linear_109_2716" x1="2270.9" y1="615.627" x2="2057.27" y2="349.644" gradientUnits="userSpaceOnUse">
<stop stop-color="white"/>
<stop offset="0.189"/>
<stop offset="1" stop-color="white" stop-opacity="0"/>
</linearGradient>
<linearGradient id="paint2_linear_109_2716" x1="766.254" y1="-156.201" x2="552.623" y2="-422.184" gradientUnits="userSpaceOnUse">
<stop stop-color="white"/>
<stop offset="0.189"/>
<stop offset="1" stop-color="white" stop-opacity="0"/>
</linearGradient>
<linearGradient id="paint3_linear_109_2716" x1="2386.64" y1="674.986" x2="2173.01" y2="409.004" gradientUnits="userSpaceOnUse">
<stop stop-color="white"/>
<stop offset="0.189"/>
<stop offset="1" stop-color="white" stop-opacity="0"/>
</linearGradient>
<linearGradient id="paint4_linear_109_2716" x1="881.996" y1="-96.8186" x2="668.365" y2="-362.801" gradientUnits="userSpaceOnUse">
<stop stop-color="white"/>
<stop offset="0.189"/>
<stop offset="1" stop-color="white" stop-opacity="0"/>
</linearGradient>
<linearGradient id="paint5_linear_109_2716" x1="2502.39" y1="734.345" x2="2288.76" y2="468.363" gradientUnits="userSpaceOnUse">
<stop stop-color="white"/>
<stop offset="0.189"/>
<stop offset="1" stop-color="white" stop-opacity="0"/>
</linearGradient>
<linearGradient id="paint6_linear_109_2716" x1="997.738" y1="-37.4514" x2="784.108" y2="-303.434" gradientUnits="userSpaceOnUse">
<stop stop-color="white"/>
<stop offset="0.189"/>
<stop offset="1" stop-color="white" stop-opacity="0"/>
</linearGradient>
<linearGradient id="paint7_linear_109_2716" x1="2618.13" y1="793.736" x2="2404.5" y2="527.754" gradientUnits="userSpaceOnUse">
<stop stop-color="white"/>
<stop offset="0.189"/>
<stop offset="1" stop-color="white" stop-opacity="0"/>
</linearGradient>
<linearGradient id="paint8_linear_109_2716" x1="1113.48" y1="21.9158" x2="899.85" y2="-244.067" gradientUnits="userSpaceOnUse">
<stop stop-color="white"/>
<stop offset="0.189"/>
<stop offset="1" stop-color="white" stop-opacity="0"/>
</linearGradient>
<linearGradient id="paint9_linear_109_2716" x1="2733.87" y1="853.103" x2="2520.24" y2="587.121" gradientUnits="userSpaceOnUse">
<stop stop-color="white"/>
<stop offset="0.189"/>
<stop offset="1" stop-color="white" stop-opacity="0"/>
</linearGradient>
<linearGradient id="paint10_linear_109_2716" x1="1229.22" y1="81.2829" x2="1015.59" y2="-184.7" gradientUnits="userSpaceOnUse">
<stop stop-color="white"/>
<stop offset="0.189"/>
<stop offset="1" stop-color="white" stop-opacity="0"/>
</linearGradient>
<linearGradient id="paint11_linear_109_2716" x1="2849.61" y1="912.463" x2="2635.98" y2="646.48" gradientUnits="userSpaceOnUse">
<stop stop-color="white"/>
<stop offset="0.189"/>
<stop offset="1" stop-color="white" stop-opacity="0"/>
</linearGradient>
<linearGradient id="paint12_linear_109_2716" x1="1344.96" y1="140.65" x2="1131.33" y2="-125.332" gradientUnits="userSpaceOnUse">
<stop stop-color="white"/>
<stop offset="0.189"/>
<stop offset="1" stop-color="white" stop-opacity="0"/>
</linearGradient>
<linearGradient id="paint13_linear_109_2716" x1="2965.36" y1="971.846" x2="2751.72" y2="705.863" gradientUnits="userSpaceOnUse">
<stop stop-color="white"/>
<stop offset="0.189"/>
<stop offset="1" stop-color="white" stop-opacity="0"/>
</linearGradient>
<linearGradient id="paint14_linear_109_2716" x1="1460.71" y1="200.017" x2="1247.08" y2="-65.9652" gradientUnits="userSpaceOnUse">
<stop stop-color="white"/>
<stop offset="0.189"/>
<stop offset="1" stop-color="white" stop-opacity="0"/>
</linearGradient>
<linearGradient id="paint15_linear_109_2716" x1="3081.1" y1="1031.21" x2="2867.47" y2="765.223" gradientUnits="userSpaceOnUse">
<stop stop-color="white"/>
<stop offset="0.189"/>
<stop offset="1" stop-color="white" stop-opacity="0"/>
</linearGradient>
<linearGradient id="paint16_linear_109_2716" x1="1576.45" y1="259.4" x2="1362.82" y2="-6.58234" gradientUnits="userSpaceOnUse">
<stop stop-color="white"/>
<stop offset="0.189"/>
<stop offset="1" stop-color="white" stop-opacity="0"/>
</linearGradient>
<linearGradient id="paint17_linear_109_2716" x1="1692.19" y1="318.775" x2="1478.56" y2="52.7927" gradientUnits="userSpaceOnUse">
<stop stop-color="white"/>
<stop offset="0.189"/>
<stop offset="1" stop-color="white" stop-opacity="0"/>
</linearGradient>
<linearGradient id="paint18_linear_109_2716" x1="1807.93" y1="378.135" x2="1594.3" y2="112.152" gradientUnits="userSpaceOnUse">
<stop stop-color="white"/>
<stop offset="0.189"/>
<stop offset="1" stop-color="white" stop-opacity="0"/>
</linearGradient>
<linearGradient id="paint19_linear_109_2716" x1="1923.68" y1="437.51" x2="1710.04" y2="171.527" gradientUnits="userSpaceOnUse">
<stop stop-color="white"/>
<stop offset="0.189"/>
<stop offset="1" stop-color="white" stop-opacity="0"/>
</linearGradient>
<linearGradient id="paint20_linear_109_2716" x1="2039.42" y1="496.877" x2="1825.79" y2="230.894" gradientUnits="userSpaceOnUse">
<stop stop-color="white"/>
<stop offset="0.189"/>
<stop offset="1" stop-color="white" stop-opacity="0"/>
</linearGradient>
<linearGradient id="paint21_linear_109_2716" x1="2155.16" y1="556.244" x2="1941.53" y2="290.261" gradientUnits="userSpaceOnUse">
<stop stop-color="white"/>
<stop offset="0.189"/>
<stop offset="1" stop-color="white" stop-opacity="0"/>
</linearGradient>
<clipPath id="clip0_109_2716">
<rect width="1728" height="1117" fill="white"/>
</clipPath>
</defs>
</svg>
