<svg width="610" height="941" viewBox="0 0 610 941" fill="none" xmlns="http://www.w3.org/2000/svg">
<g clip-path="url(#clip0_3_3325)">
<rect width="610" height="941" rx="5" fill="white"/>
<g filter="url(#filter0_f_3_3325)">
<circle cx="247.855" cy="247.855" r="247.855" transform="matrix(-0.999994 -0.00358488 -0.00358488 0.999994 855.5 435.656)" fill="#3771FE"/>
</g>
<g filter="url(#filter1_f_3_3325)">
<circle cx="348.867" cy="348.867" r="348.867" transform="matrix(-0.999994 -0.00358488 -0.00358488 0.999994 647.234 112.5)" fill="#B29EFA"/>
</g>
<g filter="url(#filter2_f_3_3325)">
<circle cx="423.213" cy="423.213" r="423.213" transform="matrix(-0.999994 -0.00358488 -0.00358488 0.999994 194.023 -81.9607)" fill="#3771FE"/>
</g>
<path d="M925.844 -500.219L1110.34 -270.514L-426.117 963.528L-610.61 733.824L925.844 -500.219Z" fill="url(#paint0_linear_3_3325)" fill-opacity="0.17" style="mix-blend-mode:overlay"/>
<path d="M1025.8 -448.953L1210.29 -219.248L-326.164 1014.79L-510.657 785.09L1025.8 -448.953Z" fill="url(#paint1_linear_3_3325)" fill-opacity="0.17" style="mix-blend-mode:overlay"/>
<path d="M1125.76 -397.695L1310.25 -167.991L-226.203 1066.05L-410.696 836.347L1125.76 -397.695Z" fill="url(#paint2_linear_3_3325)" fill-opacity="0.17" style="mix-blend-mode:overlay"/>
<path d="M-173.672 -1064.22L10.8212 -834.514L-1525.63 399.528L-1710.13 169.824L-173.672 -1064.22Z" fill="url(#paint3_linear_3_3325)" fill-opacity="0.17" style="mix-blend-mode:overlay"/>
<path d="M1225.71 -346.398L1410.2 -116.694L-126.249 1117.35L-310.743 887.644L1225.71 -346.398Z" fill="url(#paint4_linear_3_3325)" fill-opacity="0.17" style="mix-blend-mode:overlay"/>
<path d="M-73.7188 -1012.95L110.774 -783.248L-1425.68 450.794L-1610.17 221.09L-73.7188 -1012.95Z" fill="url(#paint5_linear_3_3325)" fill-opacity="0.17" style="mix-blend-mode:overlay"/>
<path d="M1325.66 -295.133L1510.16 -65.4281L-26.2963 1168.61L-210.789 938.91L1325.66 -295.133Z" fill="url(#paint6_linear_3_3325)" fill-opacity="0.17" style="mix-blend-mode:overlay"/>
<path d="M26.2422 -961.679L210.735 -731.975L-1325.72 502.068L-1510.21 272.363L26.2422 -961.679Z" fill="url(#paint7_linear_3_3325)" fill-opacity="0.17" style="mix-blend-mode:overlay"/>
<path d="M1425.62 -243.867L1610.12 -14.1625L73.6646 1219.88L-110.829 990.176L1425.62 -243.867Z" fill="url(#paint8_linear_3_3325)" fill-opacity="0.17" style="mix-blend-mode:overlay"/>
<path d="M126.195 -910.414L310.688 -680.709L-1225.77 553.333L-1410.26 323.629L126.195 -910.414Z" fill="url(#paint9_linear_3_3325)" fill-opacity="0.17" style="mix-blend-mode:overlay"/>
<path d="M1525.58 -192.586L1710.07 37.1188L173.618 1271.16L-10.8754 1041.46L1525.58 -192.586Z" fill="url(#paint10_linear_3_3325)" fill-opacity="0.17" style="mix-blend-mode:overlay"/>
<path d="M226.148 -859.14L410.642 -629.436L-1125.81 604.607L-1310.31 374.902L226.148 -859.14Z" fill="url(#paint11_linear_3_3325)" fill-opacity="0.17" style="mix-blend-mode:overlay"/>
<path d="M1625.53 -141.32L1810.02 88.3844L273.571 1322.43L89.0777 1092.72L1625.53 -141.32Z" fill="url(#paint12_linear_3_3325)" fill-opacity="0.17" style="mix-blend-mode:overlay"/>
<path d="M326.109 -807.859L510.602 -578.155L-1025.85 655.888L-1210.34 426.183L326.109 -807.859Z" fill="url(#paint13_linear_3_3325)" fill-opacity="0.17" style="mix-blend-mode:overlay"/>
<path d="M1725.49 -90.0544L1909.99 139.65L373.532 1373.69L189.039 1143.99L1725.49 -90.0544Z" fill="url(#paint14_linear_3_3325)" fill-opacity="0.17" style="mix-blend-mode:overlay"/>
<path d="M426.062 -756.586L610.556 -526.881L-925.898 707.161L-1110.39 477.457L426.062 -756.586Z" fill="url(#paint15_linear_3_3325)" fill-opacity="0.17" style="mix-blend-mode:overlay"/>
<path d="M1825.45 -38.7654L2009.94 190.939L473.485 1424.98L288.992 1195.28L1825.45 -38.7654Z" fill="url(#paint16_linear_3_3325)" fill-opacity="0.17" style="mix-blend-mode:overlay"/>
<path d="M526.016 -705.32L710.509 -475.616L-825.945 758.427L-1010.44 528.722L526.016 -705.32Z" fill="url(#paint17_linear_3_3325)" fill-opacity="0.17" style="mix-blend-mode:overlay"/>
<path d="M625.977 -654.039L810.47 -424.334L-725.984 809.708L-910.477 580.004L625.977 -654.039Z" fill="url(#paint18_linear_3_3325)" fill-opacity="0.17" style="mix-blend-mode:overlay"/>
<path d="M725.93 -602.773L910.423 -373.069L-626.031 860.974L-810.524 631.269L725.93 -602.773Z" fill="url(#paint19_linear_3_3325)" fill-opacity="0.17" style="mix-blend-mode:overlay"/>
<path d="M825.883 -551.5L1010.38 -321.795L-526.078 912.247L-710.571 682.543L825.883 -551.5Z" fill="url(#paint20_linear_3_3325)" fill-opacity="0.17" style="mix-blend-mode:overlay"/>
<path d="M48.5801 37.1621C50.3613 37.1621 52.0312 37.4785 53.5898 38.1113C55.1602 38.7441 56.502 39.6113 57.6152 40.7129C58.7285 41.8027 59.6074 43.1152 60.252 44.6504C60.8965 46.1855 61.2188 47.8262 61.2188 49.5723C61.2188 51.3184 60.8965 52.959 60.252 54.4941C59.6074 56.0293 58.7285 57.3477 57.6152 58.4492C56.502 59.5508 55.1602 60.418 53.5898 61.0508C52.0312 61.6836 50.3613 62 48.5801 62H38.9473V37.1621H48.5801ZM48.5098 57.9746C50.877 57.9746 52.8516 57.1719 54.4336 55.5664C56.0273 53.9609 56.8242 51.9629 56.8242 49.5723C56.8242 47.1816 56.0273 45.1895 54.4336 43.5957C52.8516 41.9902 50.877 41.1875 48.5098 41.1875H43.2188V57.9746H48.5098ZM74.7363 43.3496H75.4219V47.498H74.7363C72.9551 47.498 71.5547 48.002 70.5352 49.0098C69.5273 50.0059 69.0234 51.3594 69.0234 53.0703V62H64.9805V43.6484H69.0234V46.3379C70.4883 44.3457 72.3926 43.3496 74.7363 43.3496ZM79.2012 62.2812C78.3926 62.2812 77.707 62.0117 77.1445 61.4727C76.5938 60.9336 76.3184 60.2598 76.3184 59.4512C76.3184 58.6426 76.5938 57.9629 77.1445 57.4121C77.707 56.8496 78.3926 56.5684 79.2012 56.5684C80.0215 56.5684 80.707 56.8496 81.2578 57.4121C81.8086 57.9629 82.084 58.6426 82.084 59.4512C82.084 60.2598 81.8086 60.9336 81.2578 61.4727C80.707 62.0117 80.0215 62.2812 79.2012 62.2812ZM86.373 62V37.1621H90.6445V62H86.373ZM105.902 43.209C108.082 43.209 109.834 43.8711 111.158 45.1953C112.494 46.5195 113.162 48.2715 113.162 50.4512V62H109.137V51.7695C109.137 50.3633 108.721 49.2324 107.889 48.377C107.057 47.5215 105.949 47.0938 104.566 47.0938C103.113 47.0938 101.941 47.5273 101.051 48.3945C100.16 49.2617 99.7148 50.4102 99.7148 51.8398V62H95.6719V43.6484H99.7148V46.0215C101.227 44.1465 103.289 43.209 105.902 43.209ZM125.52 39.3594C123.715 39.3594 122.812 40.1973 122.812 41.873V43.6484H127.699V47.3047H122.812V62H118.787V47.3047H115.676V43.6484H118.787V41.627C118.787 39.7402 119.279 38.2754 120.264 37.2324C121.248 36.1777 122.707 35.6504 124.641 35.6504C125.859 35.6504 126.967 35.9023 127.963 36.4062V39.9746C127.236 39.5645 126.422 39.3594 125.52 39.3594ZM138.668 62.4395C135.867 62.4395 133.529 61.5195 131.654 59.6797C129.779 57.8398 128.842 55.5547 128.842 52.8242C128.842 50.0938 129.779 47.8086 131.654 45.9688C133.529 44.1289 135.867 43.209 138.668 43.209C140.496 43.209 142.16 43.6309 143.66 44.4746C145.172 45.3066 146.355 46.4609 147.211 47.9375C148.066 49.4023 148.494 51.0312 148.494 52.8242C148.494 54.6172 148.066 56.252 147.211 57.7285C146.355 59.1934 145.172 60.3477 143.66 61.1914C142.16 62.0234 140.496 62.4395 138.668 62.4395ZM134.607 56.9023C135.697 57.9922 137.051 58.5371 138.668 58.5371C140.285 58.5371 141.627 57.9922 142.693 56.9023C143.771 55.8008 144.311 54.4414 144.311 52.8242C144.311 51.1953 143.771 49.8359 142.693 48.7461C141.627 47.6445 140.285 47.0938 138.668 47.0938C137.051 47.0938 135.697 47.6445 134.607 48.7461C133.518 49.8477 132.973 51.207 132.973 52.8242C132.973 54.4414 133.518 55.8008 134.607 56.9023Z" fill="#4F576C"/>
</g>
<defs>
<filter id="filter0_f_3_3325" x="-70.1977" y="5.66635" width="1353.91" height="1353.91" filterUnits="userSpaceOnUse" color-interpolation-filters="sRGB">
<feFlood flood-opacity="0" result="BackgroundImageFix"/>
<feBlend mode="normal" in="SourceGraphic" in2="BackgroundImageFix" result="shape"/>
<feGaussianBlur stdDeviation="214.55" result="effect1_foregroundBlur_3_3325"/>
</filter>
<filter id="filter1_f_3_3325" x="-502.648" y="-339.653" width="1599.53" height="1599.53" filterUnits="userSpaceOnUse" color-interpolation-filters="sRGB">
<feFlood flood-opacity="0" result="BackgroundImageFix"/>
<feBlend mode="normal" in="SourceGraphic" in2="BackgroundImageFix" result="shape"/>
<feGaussianBlur stdDeviation="225.45" result="effect1_foregroundBlur_3_3325"/>
</filter>
<filter id="filter2_f_3_3325" x="-1218.72" y="-648.281" width="1976.03" height="1976.03" filterUnits="userSpaceOnUse" color-interpolation-filters="sRGB">
<feFlood flood-opacity="0" result="BackgroundImageFix"/>
<feBlend mode="normal" in="SourceGraphic" in2="BackgroundImageFix" result="shape"/>
<feGaussianBlur stdDeviation="282.4" result="effect1_foregroundBlur_3_3325"/>
</filter>
<linearGradient id="paint0_linear_3_3325" x1="596.947" y1="141.828" x2="412.454" y2="-87.8765" gradientUnits="userSpaceOnUse">
<stop stop-color="white"/>
<stop offset="0.189"/>
<stop offset="1" stop-color="white" stop-opacity="0"/>
</linearGradient>
<linearGradient id="paint1_linear_3_3325" x1="696.901" y1="193.094" x2="512.407" y2="-36.6108" gradientUnits="userSpaceOnUse">
<stop stop-color="white"/>
<stop offset="0.189"/>
<stop offset="1" stop-color="white" stop-opacity="0"/>
</linearGradient>
<linearGradient id="paint2_linear_3_3325" x1="796.862" y1="244.351" x2="612.368" y2="14.647" gradientUnits="userSpaceOnUse">
<stop stop-color="white"/>
<stop offset="0.189"/>
<stop offset="1" stop-color="white" stop-opacity="0"/>
</linearGradient>
<linearGradient id="paint3_linear_3_3325" x1="-502.568" y1="-422.172" x2="-687.061" y2="-651.876" gradientUnits="userSpaceOnUse">
<stop stop-color="white"/>
<stop offset="0.189"/>
<stop offset="1" stop-color="white" stop-opacity="0"/>
</linearGradient>
<linearGradient id="paint4_linear_3_3325" x1="896.815" y1="295.648" x2="712.322" y2="65.9438" gradientUnits="userSpaceOnUse">
<stop stop-color="white"/>
<stop offset="0.189"/>
<stop offset="1" stop-color="white" stop-opacity="0"/>
</linearGradient>
<linearGradient id="paint5_linear_3_3325" x1="-402.615" y1="-370.906" x2="-587.108" y2="-600.611" gradientUnits="userSpaceOnUse">
<stop stop-color="white"/>
<stop offset="0.189"/>
<stop offset="1" stop-color="white" stop-opacity="0"/>
</linearGradient>
<linearGradient id="paint6_linear_3_3325" x1="996.768" y1="346.914" x2="812.275" y2="117.209" gradientUnits="userSpaceOnUse">
<stop stop-color="white"/>
<stop offset="0.189"/>
<stop offset="1" stop-color="white" stop-opacity="0"/>
</linearGradient>
<linearGradient id="paint7_linear_3_3325" x1="-302.654" y1="-319.633" x2="-487.147" y2="-549.337" gradientUnits="userSpaceOnUse">
<stop stop-color="white"/>
<stop offset="0.189"/>
<stop offset="1" stop-color="white" stop-opacity="0"/>
</linearGradient>
<linearGradient id="paint8_linear_3_3325" x1="1096.73" y1="398.18" x2="912.236" y2="168.475" gradientUnits="userSpaceOnUse">
<stop stop-color="white"/>
<stop offset="0.189"/>
<stop offset="1" stop-color="white" stop-opacity="0"/>
</linearGradient>
<linearGradient id="paint9_linear_3_3325" x1="-202.701" y1="-268.367" x2="-387.194" y2="-498.072" gradientUnits="userSpaceOnUse">
<stop stop-color="white"/>
<stop offset="0.189"/>
<stop offset="1" stop-color="white" stop-opacity="0"/>
</linearGradient>
<linearGradient id="paint10_linear_3_3325" x1="1196.68" y1="449.461" x2="1012.19" y2="219.756" gradientUnits="userSpaceOnUse">
<stop stop-color="white"/>
<stop offset="0.189"/>
<stop offset="1" stop-color="white" stop-opacity="0"/>
</linearGradient>
<linearGradient id="paint11_linear_3_3325" x1="-102.748" y1="-217.094" x2="-287.241" y2="-446.798" gradientUnits="userSpaceOnUse">
<stop stop-color="white"/>
<stop offset="0.189"/>
<stop offset="1" stop-color="white" stop-opacity="0"/>
</linearGradient>
<linearGradient id="paint12_linear_3_3325" x1="1296.63" y1="500.726" x2="1112.14" y2="271.022" gradientUnits="userSpaceOnUse">
<stop stop-color="white"/>
<stop offset="0.189"/>
<stop offset="1" stop-color="white" stop-opacity="0"/>
</linearGradient>
<linearGradient id="paint13_linear_3_3325" x1="-2.78693" y1="-165.813" x2="-187.28" y2="-395.517" gradientUnits="userSpaceOnUse">
<stop stop-color="white"/>
<stop offset="0.189"/>
<stop offset="1" stop-color="white" stop-opacity="0"/>
</linearGradient>
<linearGradient id="paint14_linear_3_3325" x1="1396.6" y1="551.992" x2="1212.1" y2="322.288" gradientUnits="userSpaceOnUse">
<stop stop-color="white"/>
<stop offset="0.189"/>
<stop offset="1" stop-color="white" stop-opacity="0"/>
</linearGradient>
<linearGradient id="paint15_linear_3_3325" x1="97.1662" y1="-114.539" x2="-87.3269" y2="-344.244" gradientUnits="userSpaceOnUse">
<stop stop-color="white"/>
<stop offset="0.189"/>
<stop offset="1" stop-color="white" stop-opacity="0"/>
</linearGradient>
<linearGradient id="paint16_linear_3_3325" x1="1496.55" y1="603.281" x2="1312.06" y2="373.577" gradientUnits="userSpaceOnUse">
<stop stop-color="white"/>
<stop offset="0.189"/>
<stop offset="1" stop-color="white" stop-opacity="0"/>
</linearGradient>
<linearGradient id="paint17_linear_3_3325" x1="197.119" y1="-63.2735" x2="12.6262" y2="-292.978" gradientUnits="userSpaceOnUse">
<stop stop-color="white"/>
<stop offset="0.189"/>
<stop offset="1" stop-color="white" stop-opacity="0"/>
</linearGradient>
<linearGradient id="paint18_linear_3_3325" x1="297.08" y1="-11.9923" x2="112.587" y2="-241.697" gradientUnits="userSpaceOnUse">
<stop stop-color="white"/>
<stop offset="0.189"/>
<stop offset="1" stop-color="white" stop-opacity="0"/>
</linearGradient>
<linearGradient id="paint19_linear_3_3325" x1="397.033" y1="39.2734" x2="212.54" y2="-190.431" gradientUnits="userSpaceOnUse">
<stop stop-color="white"/>
<stop offset="0.189"/>
<stop offset="1" stop-color="white" stop-opacity="0"/>
</linearGradient>
<linearGradient id="paint20_linear_3_3325" x1="496.987" y1="90.5468" x2="312.493" y2="-139.158" gradientUnits="userSpaceOnUse">
<stop stop-color="white"/>
<stop offset="0.189"/>
<stop offset="1" stop-color="white" stop-opacity="0"/>
</linearGradient>
<clipPath id="clip0_3_3325">
<rect width="610" height="941" rx="5" fill="white"/>
</clipPath>
</defs>
</svg>
