<svg width="36" height="36" viewBox="0 0 36 36" fill="none" xmlns="http://www.w3.org/2000/svg">
<path fill-rule="evenodd" clip-rule="evenodd" d="M9.27273 15.4999C7.80609 15.4999 7.5 15.7878 7.5 17.1666V19.6667C7.5 21.0456 7.80609 21.3333 9.27273 21.3333H12.8182V31.3334C12.8182 32.7122 13.1243 33 14.5909 33H18.1364C19.6031 33 19.9091 32.7122 19.9091 31.3334V21.3333H23.89C25.0024 21.3333 25.2891 21.13 25.5947 20.1246L26.3544 17.6245C26.8777 15.9021 26.5553 15.4999 24.6498 15.4999H19.9091V11.3333C19.9091 10.4129 20.7027 9.66666 21.6818 9.66666H26.7273C28.1938 9.66666 28.5 9.37889 28.5 8V4.66666C28.5 3.28777 28.1938 3 26.7273 3H21.6818C16.7865 3 12.8182 6.73097 12.8182 11.3333V15.4999H9.27273Z" stroke="#4F576C" stroke-width="2.25" stroke-linejoin="round"/>
</svg>
