<svg width="87" height="34" viewBox="0 0 87 34" fill="none" xmlns="http://www.w3.org/2000/svg">
<path d="M3.53711 23.9062H15.5957V27H0.232422V2.16211H3.53711V23.9062ZM26.8984 27.4395C25.0703 27.4395 23.4062 27.0234 21.9062 26.1914C20.4062 25.3477 19.2285 24.1934 18.373 22.7285C17.5293 21.252 17.1074 19.6172 17.1074 17.8242C17.1074 16.0312 17.5293 14.4023 18.373 12.9375C19.2285 11.4609 20.4062 10.3066 21.9062 9.47461C23.4062 8.63086 25.0703 8.20898 26.8984 8.20898C29.6641 8.20898 31.9785 9.12891 33.8418 10.9688C35.7168 12.8086 36.6543 15.0938 36.6543 17.8242C36.6543 20.5547 35.7168 22.8398 33.8418 24.6797C31.9785 26.5195 29.6641 27.4395 26.8984 27.4395ZM26.8984 24.4512C28.7734 24.4512 30.332 23.8184 31.5742 22.5527C32.8281 21.2871 33.4551 19.7109 33.4551 17.8242C33.4551 15.9375 32.8281 14.3613 31.5742 13.0957C30.332 11.8301 28.7734 11.1973 26.8984 11.1973C25.0117 11.1973 23.4414 11.8301 22.1875 13.0957C20.9336 14.3613 20.3066 15.9375 20.3066 17.8242C20.3066 19.7109 20.9336 21.2871 22.1875 22.5527C23.4414 23.8184 25.0117 24.4512 26.8984 24.4512ZM52.1406 27.4746C53.8867 27.4746 55.3223 27.9141 56.4473 28.793C57.5723 29.6719 58.2227 30.873 58.3984 32.3965L55.1992 33.2227C55.1641 32.4023 54.8125 31.7402 54.1445 31.2363C53.4883 30.7441 52.6387 30.498 51.5957 30.498H44.8281C43.3047 30.498 42.0684 30.0938 41.1191 29.2852C40.1816 28.4766 39.7129 27.4277 39.7129 26.1387C39.7129 25.2715 39.9121 24.4629 40.3105 23.7129C40.7207 22.9512 41.2773 22.377 41.9805 21.9902C41.1836 21.252 40.5625 20.3848 40.1172 19.3887C39.6836 18.3926 39.4668 17.3203 39.4668 16.1719C39.4668 13.8984 40.2637 12.0059 41.8574 10.4941C43.4629 8.9707 45.4609 8.20898 47.8516 8.20898C49.4805 8.20898 50.9805 8.60742 52.3516 9.4043C52.5273 8.43164 52.9902 7.6582 53.7402 7.08398C54.4902 6.50977 55.4219 6.22266 56.5352 6.22266H57.9414V9.10547H56.7109C56.043 9.10547 55.498 9.29297 55.0762 9.66797C54.666 10.0312 54.4551 10.5176 54.4434 11.127C55.6387 12.5449 56.2363 14.2266 56.2363 16.1719C56.2363 18.4336 55.4336 20.332 53.8281 21.8672C52.2227 23.3906 50.2305 24.1523 47.8516 24.1523C46.4102 24.1523 45.1152 23.8652 43.9668 23.291C43.6035 23.5254 43.3164 23.8301 43.1055 24.2051C42.9062 24.5684 42.8066 24.9492 42.8066 25.3477C42.8066 25.9922 43.0469 26.5078 43.5273 26.8945C44.0078 27.2812 44.6348 27.4746 45.4082 27.4746H52.1406ZM47.8516 11.1621C46.3633 11.1621 45.127 11.6426 44.1426 12.6035C43.1582 13.5527 42.666 14.7422 42.666 16.1719C42.666 17.6133 43.1582 18.8145 44.1426 19.7754C45.1387 20.7246 46.375 21.1992 47.8516 21.1992C49.3281 21.1992 50.5586 20.7246 51.543 19.7754C52.5391 18.8145 53.0371 17.6133 53.0371 16.1719C53.0371 14.7422 52.5391 13.5527 51.543 12.6035C50.5586 11.6426 49.3281 11.1621 47.8516 11.1621ZM62.3535 4.97461C61.7559 4.97461 61.2578 4.78125 60.8594 4.39453C60.4609 3.99609 60.2617 3.50391 60.2617 2.91797C60.2617 2.32031 60.4609 1.82812 60.8594 1.44141C61.2578 1.05469 61.7559 0.861328 62.3535 0.861328C62.9395 0.861328 63.4258 1.05469 63.8125 1.44141C64.1992 1.82812 64.3926 2.32031 64.3926 2.91797C64.3926 3.50391 64.1934 3.99609 63.7949 4.39453C63.4082 4.78125 62.9277 4.97461 62.3535 4.97461ZM60.8066 27V8.64844H63.9004V27H60.8066ZM78.8418 8.20898C81.0801 8.20898 82.8789 8.88867 84.2383 10.248C85.6094 11.6074 86.2949 13.4121 86.2949 15.6621V27H83.2012V16.6289C83.2012 14.9883 82.7148 13.6758 81.7422 12.6914C80.7695 11.6953 79.4688 11.1973 77.8398 11.1973C76.1406 11.1973 74.7812 11.7012 73.7617 12.709C72.7422 13.7168 72.2324 15.0469 72.2324 16.6992V27H69.1387V8.64844H72.2324V11.4434C73.7207 9.28711 75.9238 8.20898 78.8418 8.20898Z" fill="#4F576C"/>
</svg>
